PathFileType	4	(X/Y/Z)	C:\Users\dbl\Desktop\20210112\20210112\bx_n_0_501.trc
DataRate	CameraRate	NumFrames	NumMarkers	Units	OrigDataRate	OrigDataStartFrame	OrigNumFrames
50.00	50.00	       11	43	mm	50.00	255	       339
Frame#	Time	Top.Head			R.Acromium			L.Acromium			Sternum			R.ASIS			L.ASIS			V.Sacral			R.Thigh.Upper			R.Thigh.Front			R.Thigh.Rear			R.Knee.Lat			R.Knee.Med			R.Shank.Upper			R.Shank.Front			R.Shank.Rear			R.Ankle.Lat			R.Midfoot.Lat			R.Toe.Lat			R.Toe.Tip			R.Toe.Med			R.Ankle.Med			R.Midfoot.Sup			R.Heel			L.Thigh.Upper			L.Thigh.Front			L.Thigh.Rear			L.Knee.Lat			L.Knee.Med			L.Shank.Upper			L.Shank.Front			L.Shank.Rear			L.Ankle.Lat			L.Midfoot.Lat			L.Toe.Lat			L.Toe.Tip			L.Toe.Med			L.Ankle.Med			L.Midfoot.Sup			L.Heel			origin1 front left			origin2 front right			origin 3 back right			origin 4 back leftt			
		X1	Y1	Z1	X2	Y2	Z2	X3	Y3	Z3	X4	Y4	Z4	X5	Y5	Z5	X6	Y6	Z6	X7	Y7	Z7	X8	Y8	Z8	X9	Y9	Z9	X10	Y10	Z10	X11	Y11	Z11	X12	Y12	Z12	X13	Y13	Z13	X14	Y14	Z14	X15	Y15	Z15	X16	Y16	Z16	X17	Y17	Z17	X18	Y18	Z18	X19	Y19	Z19	X20	Y20	Z20	X21	Y21	Z21	X22	Y22	Z22	X23	Y23	Z23	X24	Y24	Z24	X25	Y25	Z25	X26	Y26	Z26	X27	Y27	Z27	X28	Y28	Z28	X29	Y29	Z29	X30	Y30	Z30	X31	Y31	Z31	X32	Y32	Z32	X33	Y33	Z33	X34	Y34	Z34	X35	Y35	Z35	X36	Y36	Z36	X37	Y37	Z37	X38	Y38	Z38	X39	Y39	Z39	X40	Y40	Z40	X41	Y41	Z41	X42	Y42	Z42	X43	Y43	Z43	

255	5.080	-748.90875	93.31870	1856.44971	-719.36523	-89.20361	1546.62781	-760.38550	268.69159	1535.56787	-619.08990	95.09531	1362.21497	-612.34973	-12.29410	1056.22791	-630.93732	232.34871	1069.83911	-821.86688	78.39098	1061.66577	-667.45905	-80.40549	874.51422	-596.41272	-0.65042	809.09131	-681.68408	-66.60674	758.43250	-700.37030	-41.61214	615.20245				-705.68146	-39.41518	567.98541				-747.94037	-55.65584	486.74475				-642.03131	-59.92088	162.51045	-599.97797	-61.59506	159.88011	-548.17529	-13.28816	165.41664	-601.33362	36.12819	169.53610				-678.03082	56.29694	161.34883							-609.38098	211.36302	797.49811				-737.62457	249.29552	642.96753							-684.98755	195.20445	536.32227	-768.19727	258.29199	500.61548																																					
256	5.100	-750.14111	93.45013	1856.17700	-720.76221	-89.11478	1546.54175	-761.55670	268.91867	1534.96741	-619.10779	95.10413	1362.44067	-610.94647	-12.20663	1056.58386	-629.90765	232.39186	1069.59912	-820.43036	77.71635	1061.35583	-666.03857	-80.48289	874.43988	-594.80457	-0.38561	809.34613	-680.30615	-66.44781	758.01324	-698.75183	-41.64871	615.11536				-704.49353	-39.59674	568.16150				-747.03748	-55.71173	486.69785				-641.90216	-59.88622	162.65056	-599.86127	-61.67490	159.82774	-548.09918	-13.26172	165.31009	-601.38702	36.26586	169.50104				-678.10297	56.45031	161.26137							-608.15588	211.20868	797.38483				-736.90997	248.97890	643.23822							-684.31000	194.98656	536.21344	-767.91827	258.04330	500.49301																																					
257	5.120	-751.28754	93.81123	1855.95618	-721.66302	-89.31258	1546.46167	-762.78510	268.86539	1534.18384	-619.14514	95.07226	1362.67029	-609.49146	-12.90825	1056.78210	-628.37225	232.21849	1069.57300	-819.07098	77.60641	1061.07727	-664.53259	-81.00868	874.47321	-593.70819	-0.33742	808.95544	-679.13196	-66.63619	758.10278	-698.22357	-41.79665	614.78741				-703.97186	-39.33195	567.66901				-746.45978	-55.92274	486.75186				-641.90216	-59.88622	162.65056	-599.97797	-61.59506	159.88011	-547.83966	-12.95596	165.31532	-601.11774	36.12386	169.34972				-677.59668	56.39534	161.18001							-607.22498	210.94777	796.88501				-736.06372	248.95198	643.51440							-683.76880	194.76230	536.39392	-767.53174	257.61136	500.80426																																					
258	5.140	-752.09375	94.01585	1855.78442	-722.84338	-89.10850	1546.32715	-763.60492	269.08359	1533.59436	-619.22693	95.25806	1362.85327	-608.41180	-13.02523	1056.55957	-627.33453	231.95035	1069.40405	-818.04517	77.16944	1060.80420	-662.89740	-80.86082	874.17706	-592.35004	-0.22041	808.57648	-677.62360	-66.97943	758.21814	-697.34222	-42.05013	614.58496				-702.83344	-39.23722	567.04083				-745.89172	-55.80686	486.54916				-641.90216	-59.88622	162.65056	-599.88776	-61.63047	159.77345	-547.75446	-12.81137	165.35069	-601.09869	36.17114	169.26088				-677.82471	56.55498	161.01097							-606.42932	210.28215	796.53406				-735.56610	248.72110	643.36237							-683.20337	194.68721	535.74957	-767.00226	257.26367	501.06378																																					
259	5.160	-753.02936	94.61480	1855.51086	-723.73975	-89.12053	1546.12207	-764.64227	269.15057	1533.19910	-619.29462	94.79694	1363.05896	-607.25262	-13.53591	1056.89685	-626.28033	231.70218	1069.48645	-817.02252	76.80125	1060.64368	-661.57764	-80.67718	873.53235	-591.31818	-0.25454	808.57166	-676.68530	-67.21095	758.09259	-696.10657	-42.00861	614.63782				-701.98792	-39.42031	566.89429				-745.29535	-55.97454	486.62521				-641.82843	-59.77242	162.77731	-599.86127	-61.67490	159.82774	-547.85779	-12.36839	165.45084	-601.06744	36.33419	169.18268				-677.76331	56.54176	160.81972							-605.64362	210.25282	796.54175				-734.76294	248.29407	643.44409							-682.61285	194.34198	535.46936	-766.54712	256.91830	501.19415																																					
260	5.180	-753.96051	94.69427	1855.31860	-724.73553	-88.75944	1546.19104	-765.22314	269.38333	1532.43591	-619.52899	94.74533	1363.05908	-605.74280	-14.19623	1056.93970	-625.46173	231.45821	1069.34399	-815.69366	76.20202	1060.28162	-660.36859	-81.56657	873.86584	-590.47363	-0.16039	808.73218	-675.23785	-67.42497	757.81165	-695.76880	-42.15160	614.38214				-701.59595	-39.76817	567.23755				-744.41382	-56.03255	486.67316				-641.82843	-59.77242	162.77731	-599.91986	-61.45319	160.03712	-547.66461	-12.42518	165.16431	-601.13098	36.54297	168.97388				-677.88861	56.63816	160.41675							-604.74664	209.81664	796.51086				-734.47107	248.07443	643.39307							-682.41095	194.05388	535.26691	-766.37689	256.77863	501.29739																																					
261	5.200	-754.79303	95.08263	1855.14551	-725.47729	-88.91954	1546.15588	-765.76312	269.53961	1531.63806	-619.65588	94.47163	1363.05725	-604.97528	-14.28086	1056.74817	-624.46729	231.19678	1069.46155	-814.91364	75.56381	1060.08362	-659.01880	-81.50021	873.78540	-588.98505	-0.27652	808.41431	-674.06885	-67.47720	757.66302	-694.96576	-41.88701	614.10742				-701.04407	-39.95872	567.08008				-744.11298	-56.52655	486.63937				-641.90216	-59.88622	162.65056	-599.76733	-61.71656	159.72885	-547.50275	-12.50304	165.26239	-601.32446	36.47823	168.63266				-677.90942	56.70761	159.97804							-603.81488	209.42387	796.36194				-734.16693	247.55621	643.48700							-681.83258	193.75406	535.59961	-766.10681	256.58859	501.29700																																					
262	5.220	-755.15143	95.31145	1854.86145	-726.22272	-88.99878	1546.19214	-766.12653	269.56348	1531.27942	-619.47418	94.29323	1363.13953	-603.88922	-14.53721	1056.60388	-623.45990	230.74062	1069.35742	-813.67352	75.16590	1059.92371	-658.12286	-82.00092	873.63062	-588.27844	-0.66510	808.02429	-673.06250	-67.56371	757.39655	-694.11377	-42.48862	614.43378				-700.58215	-40.06576	566.90302				-743.89874	-56.68708	486.77509				-641.90216	-59.88622	162.65056	-599.72552	-61.65464	159.78133	-547.53979	-12.29865	165.08185	-601.23712	37.08196	168.20738				-677.78992	56.79298	159.93185							-603.49597	209.44673	796.26886				-733.37646	247.43488	643.56525							-681.67389	193.62729	535.58350	-765.54218	256.53012	501.38290																																					
263	5.240	-755.79333	95.80601	1854.63220	-727.07617	-88.82545	1546.25598	-766.49139	269.49615	1530.72021	-619.40637	93.96458	1363.35474	-602.56903	-14.90368	1056.51147	-622.75006	230.39040	1069.48694	-812.92761	74.91251	1059.89014	-656.72504	-82.22989	873.39087	-587.55975	-0.63655	808.04108	-672.37250	-67.94524	757.56177	-693.72809	-42.72329	613.90192				-699.98596	-40.45520	566.92218				-743.52325	-57.00571	486.98602				-641.90216	-59.88622	162.65056	-599.63159	-61.69630	159.68240	-547.63324	-12.34846	165.04616	-601.13763	37.18493	168.09938				-678.02179	56.77297	159.91505							-602.08405	209.40826	796.31824				-732.30688	246.72324	643.27936							-681.28571	193.66719	535.54999	-765.11487	256.26721	501.56375																																					
264	5.260	-756.35480	96.32448	1854.41846	-727.51691	-88.94962	1546.07959	-766.80957	269.52902	1530.10059	-619.54218	93.80391	1363.50171	-602.01184	-15.18224	1056.58496	-621.74908	230.08618	1069.38281	-811.78601	73.90179	1059.23669	-655.95911	-82.60948	873.40900	-586.76355	-0.67811	807.93872	-671.44537	-68.33845	757.38116	-693.09711	-43.39210	613.94781				-699.70166	-40.67503	566.79309				-743.08594	-57.32627	486.36475				-641.90216	-59.88622	162.65056	-599.58740	-61.70008	159.86057	-547.50635	-12.18911	165.27925	-601.01501	37.13161	167.98210				-677.92273	56.68096	160.02293							-601.38696	209.15881	796.24957				-731.88354	246.89374	643.50787							-680.41028	193.28696	535.73901	-764.51855	255.82260	501.42737																																					
265	5.280	-756.75092	96.68780	1854.18628	-728.18915	-88.79471	1546.00745	-767.08521	269.59698	1529.47266	-619.24683	93.46897	1363.48621	-601.10663	-15.60468	1056.57776	-620.84521	229.70650	1069.27466	-810.84290	73.93415	1059.16968	-655.31604	-82.97919	873.31342	-586.41412	-1.05736	807.71509	-671.07727	-68.41480	757.20599	-693.20886	-43.73521	613.94684				-699.21088	-41.13452	567.02875				-743.06555	-57.47363	486.42456				-641.78491	-59.97528	162.77107	-599.46698	-61.78618	159.81593	-547.56946	-12.32070	165.12466	-601.08887	37.23860	167.97479				-677.91229	56.89521	159.81593							-600.49884	208.31140	796.42188				-731.42108	246.41818	643.66901							-679.56049	193.20557	535.94031	-764.10425	255.31453	501.39621																																					
